HIERARCHY
ROOT joint_Root
{
	OFFSET 0.0 0.0 0.0
	CHANNELS 6 Xposition Yposition Zposition Zrotation Xrotation Yrotation 
	JOINT Hips
	{
		OFFSET -17.1583 93.1646 452.98
		CHANNELS 6 Xposition Yposition Zposition Zrotation Xrotation Yrotation 
		JOINT Spine
		{
			OFFSET 15.7357 0.0 0.0
			CHANNELS 6 Xposition Yposition Zposition Zrotation Xrotation Yrotation 
			JOINT Chest
			{
				OFFSET 8.98455 -0.406207 0.0
				CHANNELS 6 Xposition Yposition Zposition Zrotation Xrotation Yrotation 
				JOINT Neck
				{
					OFFSET 16.3773 0.0 0.0
					CHANNELS 6 Xposition Yposition Zposition Zrotation Xrotation Yrotation 
					JOINT Head
					{
						OFFSET 6.45672 0.0 0.0
						CHANNELS 6 Xposition Yposition Zposition Zrotation Xrotation Yrotation 
						End Site
						{
							OFFSET 0.0 0.0 0.0
						}
					}
				}
				JOINT Shoulder_L
				{
					OFFSET 12.9942 -0.242716 4.98039
					CHANNELS 6 Xposition Yposition Zposition Zrotation Xrotation Yrotation 
					JOINT UpperArm_L
					{
						OFFSET 5.34809 0.0 0.0
						CHANNELS 6 Xposition Yposition Zposition Zrotation Xrotation Yrotation 
						JOINT LowerArm_L
						{
							OFFSET 24.3286 1.87007e-05 0.0
							CHANNELS 6 Xposition Yposition Zposition Zrotation Xrotation Yrotation 
							JOINT Hand_L
							{
								OFFSET 22.2916 0.0 0.0
								CHANNELS 6 Xposition Yposition Zposition Zrotation Xrotation Yrotation 
								End Site
								{
									OFFSET 0.0 0.0 0.0
								}
							}
						}
					}
				}
				JOINT Shoulder_R
				{
					OFFSET 12.9945 -0.242716 -4.98039
					CHANNELS 6 Xposition Yposition Zposition Zrotation Xrotation Yrotation 
					JOINT UpperArm_R
					{
						OFFSET -5.34813 0.0 0.0
						CHANNELS 6 Xposition Yposition Zposition Zrotation Xrotation Yrotation 
						JOINT LowerArm_R
						{
							OFFSET -24.3289 0.000322201 0.0
							CHANNELS 6 Xposition Yposition Zposition Zrotation Xrotation Yrotation 
							JOINT Hand_R
							{
								OFFSET -22.2915 -0.000108084 0.0
								CHANNELS 6 Xposition Yposition Zposition Zrotation Xrotation Yrotation 
								End Site
								{
									OFFSET 0.0 0.0 0.0
								}
							}
						}
					}
				}
			}
		}
		JOINT UpperLeg_L
		{
			OFFSET -2.19248 -6.46944 0.0
			CHANNELS 6 Xposition Yposition Zposition Zrotation Xrotation Yrotation 
			JOINT LowerLeg_L
			{
				OFFSET 39.0811 0.0 -1.23785e-05
				CHANNELS 6 Xposition Yposition Zposition Zrotation Xrotation Yrotation 
				JOINT Foot_L
				{
					OFFSET 40.9854 0.0 -1.26872e-05
					CHANNELS 6 Xposition Yposition Zposition Zrotation Xrotation Yrotation 
					JOINT Toes_L
					{
						OFFSET 11.7543 0.0 0.0
						CHANNELS 6 Xposition Yposition Zposition Zrotation Xrotation Yrotation 
						End Site
						{
							OFFSET 0.0 0.0 0.0
						}
					}
				}
			}
		}
		JOINT UpperLeg_R
		{
			OFFSET -2.19251 6.46944 0.0
			CHANNELS 6 Xposition Yposition Zposition Zrotation Xrotation Yrotation 
			JOINT LowerLeg_R
			{
				OFFSET -39.0811 -0.00228153 -0.0401928
				CHANNELS 6 Xposition Yposition Zposition Zrotation Xrotation Yrotation 
				JOINT Foot_R
				{
					OFFSET -40.9854 0.0 0.0
					CHANNELS 6 Xposition Yposition Zposition Zrotation Xrotation Yrotation 
					JOINT Toes_R
					{
						OFFSET -11.7543 0.0 0.0
						CHANNELS 6 Xposition Yposition Zposition Zrotation Xrotation Yrotation 
						End Site
						{
							OFFSET 0.0 0.0 0.0
						}
					}
				}
			}
		}
	}
}
MOTION
Frames:	4
Frame Time:	0.0333333
0.000000 0.000000 0.000000 0.000000 0.000000 -0.000000 0.279626 84.181200 82.965400 -83.284300 2.740390 167.438000 15.735700 0.000005 -0.000001 95.580000 83.191200 -91.481800 8.984550 -0.406207 -0.000000 5.756670 1.249410 8.124250 16.377300 -0.000001 -0.000001 -12.880300 2.766090 -1.006030 6.456720 -0.000001 -0.000000 -2.801200 3.155910 -5.277840 12.994200 -0.242716 4.980390 -92.851400 8.632520 -71.642400 5.348090 -0.000007 -0.000001 -65.779500 -2.242380 5.925450 24.328600 0.000019 0.000005 9.159550 35.429900 -15.545800 22.291600 -0.000001 0.000005 -2.355510 4.907200 9.233960 12.994500 -0.242716 -4.980390 89.446300 2.307460 -76.502500 -5.348130 -0.000001 -0.000004 -59.107900 -0.823311 -4.762410 -24.328900 0.000322 -0.000009 4.554220 10.933700 -22.799900 -22.291500 -0.000108 -0.000004 3.507980 5.169460 3.496780 -2.192480 -6.469440 -0.000000 -174.366000 -4.687170 -38.022200 39.081100 -0.000007 -0.000012 0.327842 0.075991 103.048000 40.985400 -0.000006 -0.000013 -5.763220 -0.416788 -37.246800 11.754300 -0.000000 0.000003 0.002123 0.051712 -14.479200 -2.192510 6.469440 -0.000001 -170.525000 1.094300 150.537000 -39.081100 -0.002282 -0.040193 -0.005114 0.006361 52.705100 -40.985400 0.000008 0.000006 -4.790910 -1.665930 -89.270800 -11.754300 -0.000006 -0.000006 -0.001931 0.195519 -8.641020
0.000000 0.000000 0.000000 0.000000 0.000000 -0.000000 -0.171133 86.246400 73.905400 -85.965300 2.833290 166.368000 15.735700 0.000005 -0.000001 102.437000 83.652700 -99.674900 8.984550 -0.406207 -0.000000 4.576600 2.652380 5.412690 16.377300 -0.000001 -0.000001 -12.206400 1.762030 -0.219519 6.456720 -0.000001 -0.000000 -3.299800 1.464930 -3.979440 12.994200 -0.242716 4.980390 -92.548200 7.419510 -70.984300 5.348090 -0.000007 -0.000001 -60.124000 -7.779360 10.141300 24.328600 0.000019 0.000005 5.867500 40.632400 -8.969030 22.291600 -0.000001 0.000005 -3.923470 4.842930 10.501300 12.994500 -0.242716 -4.980390 89.426400 2.401070 -76.559800 -5.348130 -0.000001 -0.000004 -58.846100 3.329270 -5.935300 -24.328900 0.000322 -0.000009 3.560080 4.253260 -40.050400 -22.291500 -0.000108 -0.000004 9.734560 5.370350 -1.975430 -2.192480 -6.469440 -0.000000 -177.896000 -2.023800 -47.416500 39.081100 -0.000007 -0.000012 0.185469 0.032410 99.909100 40.985400 -0.000006 -0.000013 -6.040640 0.053033 -43.672700 11.754300 -0.000000 0.000003 0.001930 0.044112 -14.787400 -2.192510 6.469440 -0.000001 -174.646000 2.781620 159.679000 -39.081100 -0.002282 -0.040193 -0.019045 0.022902 44.251600 -40.985400 0.000008 0.000006 -6.371260 1.152670 -86.126200 -11.754300 -0.000006 -0.000006 0.002055 0.118855 -11.753500
0.000000 0.000000 0.000000 0.000000 0.000000 -0.000000 -1.086790 89.452500 64.336500 -89.596600 3.975600 164.711000 15.735700 0.000005 -0.000001 111.812000 84.207000 -110.836000 8.984550 -0.406207 -0.000000 2.962110 4.259720 1.841250 16.377300 -0.000001 -0.000001 -11.730900 0.876332 0.332456 6.456720 -0.000001 -0.000000 -2.892420 -0.331642 -3.002600 12.994200 -0.242716 4.980390 -92.041100 5.826190 -70.655000 5.348090 -0.000007 -0.000001 -53.882900 -11.816100 13.864600 24.328600 0.000019 0.000005 2.872130 42.775700 -4.224640 22.291600 -0.000001 0.000005 -4.544870 4.680440 13.500900 12.994500 -0.242716 -4.980390 89.664200 1.469440 -77.129100 -5.348130 -0.000001 -0.000004 -60.569700 3.430220 -5.828150 -24.328900 0.000322 -0.000009 -0.270402 -0.175289 -56.568400 -22.291500 -0.000108 -0.000004 12.029000 5.469640 -5.362320 -2.192480 -6.469440 -0.000000 177.491000 0.441453 -52.849400 39.081100 -0.000007 -0.000012 0.083740 -0.001126 89.223400 40.985400 -0.000006 -0.000013 -5.092890 -2.704060 -50.376000 11.754300 -0.000000 0.000003 0.002306 0.061153 -14.096400 -2.192510 6.469440 -0.000001 179.828000 4.834770 168.399000 -39.081100 -0.002282 -0.040193 -0.009827 0.020379 32.778100 -40.985400 0.000008 0.000006 -6.913180 2.503420 -73.879100 -11.754300 -0.000006 -0.000006 -0.007357 -0.082697 -19.940000
0.000000 0.000000 0.000000 0.000000 0.000000 -0.000000 -1.921450 92.716000 54.780000 -92.635400 5.030680 162.144000 15.735700 0.000005 -0.000001 123.823000 85.030900 -124.358000 8.984550 -0.406207 -0.000000 0.521128 5.564000 -1.095130 16.377300 -0.000001 -0.000001 -10.888400 0.139615 0.468345 6.456720 -0.000001 -0.000000 -1.680540 -1.781920 -2.279950 12.994200 -0.242716 4.980390 -91.307000 3.784200 -70.930900 5.348090 -0.000007 -0.000001 -48.278600 -15.276000 17.945800 24.328600 0.000019 0.000005 1.302170 40.525500 -2.003340 22.291600 -0.000001 0.000005 -1.344860 4.411600 18.021500 12.994500 -0.242716 -4.980390 90.004300 -0.019939 -77.693700 -5.348130 -0.000001 -0.000004 -63.741100 1.874130 -6.232740 -24.328900 0.000322 -0.000009 -3.022030 -1.150960 -69.153000 -22.291500 -0.000108 -0.000004 9.910920 5.541660 -8.325080 -2.192480 -6.469440 -0.000000 174.869000 2.698350 -55.657500 39.081100 -0.000007 -0.000012 0.073776 -0.022415 73.095100 40.985400 -0.000006 -0.000013 -5.795970 -4.866860 -54.489100 11.754300 -0.000000 0.000003 0.002066 0.049313 -14.576500 -2.192510 6.469440 -0.000001 175.741000 7.817410 174.262000 -39.081100 -0.002282 -0.040193 0.018162 -0.037549 21.569600 -40.985400 0.000008 0.000006 -3.224200 1.828580 -54.713700 -11.754300 -0.000006 -0.000006 -0.051955 -0.304663 -29.128000
